# xmcd
#
# Track frame offsets: 
#        150
#        19132
#        43620
#        67585
#        102610
#        114612
#        144465
#        178210
#        197565
#        213912
#        231657
#        264392
#        285842
#        305265
#
# Disc length: 4261 seconds
#
# Revision: 1
# Processed by: cddbd v1.5.2PL0 Copyright (c) Steve Scherf et al.
# Submitted via: ExactAudioCopy v1.0b1
#
DISCID=c610a30e
DTITLE=Various Artist - The Sampler (The Concord Jazz Heritage Series
DTITLE=)
DYEAR=1996
DGENRE=Jazz
TTITLE0=Tito Puente - Airegin
TTITLE1=The Great Guitars - Lovers
TTITLE2=Mel Torme - Born To Be Blue
TTITLE3=Rob McConnell and The Boss Brass - 4 B.C.
TTITLE4=Laurindo Almeida - Te Amo
TTITLE5=Scott Hamilton - Some Of These Days
TTITLE6=Jeannie and Jimmy Cheatham - Meet Me With Your Black Drawers On
TTITLE7=Barney Kessel - I'm On My Way
TTITLE8=Ruby Braff - Here's Carl
TTITLE9=Monty Alexander - Sly Mongoose
TTITLE10=Cal Tjader - Doxy
TTITLE11=Dave McKenna - Sunbeam and Thundercloud
TTITLE12=Rosemary Clooney - I'll Be Seeing You
TTITLE13=George Shearing - Waltz For Claudia
EXTD=YEAR: 1996
EXTT0=
EXTT1=
EXTT2=
EXTT3=
EXTT4=
EXTT5=
EXTT6=
EXTT7=
EXTT8=
EXTT9=
EXTT10=
EXTT11=
EXTT12=
EXTT13=
PLAYORDER=
